<svg width="47" height="46" viewBox="0 0 47 46" fill="none" xmlns="http://www.w3.org/2000/svg">
<path d="M21.9166 30.3131V44.6062C21.9175 44.7301 21.892 44.8528 21.8418 44.9661C21.7917 45.0793 21.7181 45.1807 21.6259 45.2634C21.5336 45.3461 21.4249 45.4083 21.3068 45.4459C21.1888 45.4834 21.0641 45.4955 20.941 45.4812C16.8973 44.9846 13.0604 43.4141 9.82903 40.9328C6.59767 38.4516 4.08978 35.1502 2.56601 31.3718C2.52046 31.257 2.49976 31.1338 2.50526 31.0103C2.51077 30.8869 2.54236 30.766 2.59795 30.6557C2.65354 30.5453 2.73187 30.448 2.82779 30.3701C2.92371 30.2922 3.03504 30.2355 3.15445 30.2037L16.9554 26.4981C17.1321 26.4517 17.3188 26.4618 17.4894 26.5269C17.6601 26.5921 17.8061 26.709 17.9069 26.8612C18.7426 28.0701 19.9348 28.9878 21.3173 29.4862C21.4912 29.5439 21.6426 29.6548 21.7501 29.8031C21.8576 29.9515 21.9159 30.1299 21.9166 30.3131ZM23.6798 0.138721C23.4488 0.136989 23.2199 0.180976 23.006 0.268146C22.7922 0.355316 22.5977 0.483946 22.4338 0.646621C22.2699 0.809296 22.1399 1.0028 22.0511 1.21598C21.9623 1.42916 21.9166 1.6578 21.9166 1.88872V14.1387C21.9131 14.599 22.0925 15.0418 22.4153 15.37C22.7381 15.6981 23.1779 15.8847 23.6382 15.8887C25.2909 15.8816 26.8929 16.4595 28.1605 17.5201C29.428 18.5807 30.2794 20.0556 30.5639 21.6837C30.8484 23.3118 30.5476 24.9881 29.7149 26.4157C28.8821 27.8433 27.571 28.9303 26.0138 29.484C25.84 29.5422 25.6888 29.6536 25.5816 29.8023C25.4745 29.9511 25.4168 30.1298 25.4166 30.3131V44.6062C25.4158 44.7299 25.4413 44.8523 25.4913 44.9655C25.5413 45.0786 25.6147 45.1798 25.7067 45.2625C25.7987 45.3452 25.9071 45.4074 26.0249 45.4451C26.1427 45.4828 26.2672 45.4951 26.3901 45.4812C32.1552 44.7994 37.4415 41.9394 41.1667 37.4869C44.8918 33.0343 46.7739 27.3262 46.4275 21.5312C46.0811 15.7363 43.5324 10.293 39.3034 6.31593C35.0744 2.33887 29.485 0.128964 23.6798 0.138721ZM16.6798 22.3397C16.7612 21.306 17.0713 20.3033 17.5876 19.404V19.3887C17.761 19.0892 17.8417 18.745 17.8195 18.3997C17.7973 18.0543 17.6732 17.7233 17.4629 17.4484C17.3158 17.2593 17.1329 17.101 16.9248 16.9825L6.35257 10.8706C6.15338 10.7557 5.9335 10.6813 5.70551 10.6514C5.47751 10.6216 5.24587 10.637 5.02383 10.6967C4.80178 10.7564 4.59368 10.8593 4.41143 10.9995C4.22917 11.1397 4.07633 11.3144 3.96163 11.5137C1.41562 15.9232 0.420572 21.0587 1.13538 26.1C1.15225 26.223 1.19512 26.3411 1.26113 26.4462C1.32715 26.5514 1.4148 26.6414 1.51826 26.7101C1.62172 26.7788 1.73863 26.8247 1.86119 26.8447C1.98376 26.8647 2.10919 26.8584 2.22913 26.8262L16.0585 23.1075C16.2299 23.0601 16.3824 22.9609 16.4952 22.8234C16.608 22.686 16.6755 22.517 16.6885 22.3397H16.6798Z" fill="#8330c2"/>
</svg>
