<svg width="56" height="57" viewBox="0 0 56 57" fill="none" xmlns="http://www.w3.org/2000/svg">
<g clip-path="url(#clip0_3016_20866)">
<path d="M50.4 48.8363C50.5956 49.0963 50.7149 49.4056 50.7444 49.7297C50.7739 50.0537 50.7126 50.3795 50.5671 50.6706C50.4217 50.9616 50.198 51.2064 49.9212 51.3774C49.6444 51.5483 49.3254 51.6388 49 51.6385H7C6.675 51.6385 6.35643 51.548 6.07997 51.3771C5.80351 51.2062 5.5801 50.9618 5.43475 50.6711C5.28941 50.3804 5.22789 50.055 5.25707 49.7313C5.28626 49.4076 5.405 49.0984 5.6 48.8384C7.14959 46.7609 9.21599 45.1251 11.5938 44.0938C10.2904 42.9042 9.37715 41.3484 8.97389 39.6305C8.57063 37.9126 8.69621 36.1129 9.33413 34.4676C9.97206 32.8224 11.0925 31.4084 12.5484 30.4114C14.0044 29.4144 15.7277 28.8809 17.4923 28.8809C19.2569 28.8809 20.9803 29.4144 22.4362 30.4114C23.8922 31.4084 25.0126 32.8224 25.6506 34.4676C26.2885 36.1129 26.4141 37.9126 26.0108 39.6305C25.6075 41.3484 24.6943 42.9042 23.3909 44.0938C25.1064 44.8353 26.6653 45.8961 27.9847 47.2197C29.304 45.8961 30.863 44.8353 32.5784 44.0938C31.2751 42.9042 30.3618 41.3484 29.9586 39.6305C29.5553 37.9126 29.6809 36.1129 30.3188 34.4676C30.9567 32.8224 32.0772 31.4084 33.5331 30.4114C34.9891 29.4144 36.7124 28.8809 38.477 28.8809C40.2416 28.8809 41.965 29.4144 43.4209 30.4114C44.8769 31.4084 45.9973 32.8224 46.6352 34.4676C47.2732 36.1129 47.3987 37.9126 46.9955 39.6305C46.5922 41.3484 45.679 42.9042 44.3756 44.0938C46.7645 45.1197 48.8419 46.7551 50.4 48.8363ZM5.95 28.5384C6.13385 28.6763 6.34306 28.7767 6.56568 28.8337C6.78831 28.8907 7.01998 28.9034 7.24749 28.8709C7.47499 28.8384 7.69387 28.7614 7.89161 28.6443C8.08936 28.5272 8.26211 28.3723 8.4 28.1884C9.45955 26.7757 10.8335 25.6291 12.4129 24.8393C13.9924 24.0496 15.7341 23.6384 17.5 23.6384C19.2659 23.6384 21.0076 24.0496 22.5871 24.8393C24.1665 25.6291 25.5405 26.7757 26.6 28.1884C26.763 28.4058 26.9744 28.5822 27.2174 28.7037C27.4604 28.8252 27.7283 28.8884 28 28.8884C28.2717 28.8884 28.5396 28.8252 28.7826 28.7037C29.0256 28.5822 29.237 28.4058 29.4 28.1884C30.4595 26.7757 31.8335 25.6291 33.4129 24.8393C34.9924 24.0496 36.7341 23.6384 38.5 23.6384C40.2659 23.6384 42.0076 24.0496 43.5871 24.8393C45.1665 25.6291 46.5405 26.7757 47.6 28.1884C47.738 28.3723 47.9109 28.5272 48.1088 28.6442C48.3067 28.7612 48.5257 28.8381 48.7533 28.8705C48.9809 28.9029 49.2127 28.8902 49.4353 28.833C49.658 28.7759 49.8672 28.6754 50.0511 28.5374C50.2349 28.3993 50.3898 28.2264 50.5068 28.0285C50.6239 27.8307 50.7008 27.6117 50.7332 27.3841C50.7656 27.1565 50.7528 26.9247 50.6957 26.702C50.6385 26.4793 50.538 26.2701 50.4 26.0863C48.8503 24.0093 46.7839 22.3742 44.4062 21.3438C45.7096 20.1542 46.6229 18.5984 47.0261 16.8805C47.4294 15.1626 47.3038 13.3629 46.6659 11.7176C46.0279 10.0724 44.9075 8.65844 43.4516 7.66141C41.9956 6.66439 40.2723 6.13086 38.5077 6.13086C36.7431 6.13086 35.0197 6.66439 33.5638 7.66141C32.1078 8.65844 30.9874 10.0724 30.3494 11.7176C29.7115 13.3629 29.5859 15.1626 29.9892 16.8805C30.3925 18.5984 31.3057 20.1542 32.6091 21.3438C30.8936 22.0853 29.3347 23.1461 28.0153 24.4697C26.696 23.1461 25.137 22.0853 23.4216 21.3438C24.7249 20.1542 25.6382 18.5984 26.0414 16.8805C26.4447 15.1626 26.3191 13.3629 25.6812 11.7176C25.0433 10.0724 23.9228 8.65844 22.4669 7.66141C21.0109 6.66439 19.2876 6.13086 17.523 6.13086C15.7584 6.13086 14.035 6.66439 12.5791 7.66141C11.1231 8.65844 10.0027 10.0724 9.36476 11.7176C8.72683 13.3629 8.60126 15.1626 9.00451 16.8805C9.40777 18.5984 10.321 20.1542 11.6244 21.3438C9.23546 22.3706 7.15805 24.0067 5.6 26.0884C5.46211 26.2723 5.36179 26.4815 5.30475 26.7041C5.24772 26.9268 5.23509 27.1584 5.26759 27.3859C5.30009 27.6134 5.37708 27.8323 5.49417 28.0301C5.61126 28.2278 5.76615 28.4006 5.95 28.5384Z" fill="#8330c2"/>
</g>
<defs>
<clipPath id="clip0_3016_20866">
<rect width="56" height="56" fill="white" transform="translate(0 0.888672)"/>
</clipPath>
</defs>
</svg>
