<svg width="45" height="48" viewBox="0 0 45 48" fill="none" xmlns="http://www.w3.org/2000/svg">
<path d="M43.3333 12.4417C42.9214 12.655 42.4416 12.6961 41.9994 12.5558C41.5572 12.4155 41.1888 12.1054 40.9752 11.6936C39.3048 8.39374 36.7765 5.6047 33.6558 3.61954C33.4614 3.49688 33.2929 3.33711 33.1602 3.14936C33.0275 2.96161 32.933 2.74955 32.8822 2.5253C32.8315 2.30105 32.8253 2.06899 32.8642 1.84237C32.9031 1.61575 32.9863 1.39902 33.109 1.20454C33.2316 1.01006 33.3914 0.841644 33.5791 0.70891C33.7669 0.576175 33.979 0.48172 34.2032 0.430938C34.4275 0.380156 34.6595 0.374041 34.8861 0.412943C35.1128 0.451844 35.3295 0.535001 35.524 0.657663C39.1609 2.98634 42.1141 6.23921 44.0815 10.0836C44.2948 10.4955 44.3358 10.9753 44.1955 11.4175C44.0552 11.8597 43.7451 12.2281 43.3333 12.4417ZM2.1449 12.6386C2.46551 12.6385 2.77992 12.5503 3.05381 12.3836C3.3277 12.217 3.55055 11.9783 3.69803 11.6936C5.36841 8.39374 7.89676 5.6047 11.0174 3.61954C11.4102 3.37181 11.6884 2.9782 11.791 2.5253C11.8936 2.0724 11.812 1.59731 11.5643 1.20454C11.3166 0.811769 10.9229 0.533497 10.47 0.430938C10.0171 0.328379 9.54205 0.409935 9.14928 0.657663C5.51235 2.98634 2.55917 6.23921 0.59178 10.0836C0.453613 10.3503 0.386415 10.6481 0.396655 10.9483C0.406895 11.2484 0.494227 11.5409 0.650247 11.7976C0.806267 12.0543 1.02572 12.2665 1.28749 12.4138C1.54927 12.561 1.84454 12.6385 2.1449 12.6386ZM42.8543 35.3755C43.1643 35.9071 43.3287 36.5111 43.3308 37.1266C43.3329 37.742 43.1727 38.3472 42.8663 38.8809C42.5599 39.4147 42.1182 39.8582 41.5857 40.1668C41.0532 40.4754 40.4488 40.6382 39.8333 40.6386H30.9083C30.5067 42.6166 29.4336 44.3949 27.8708 45.6723C26.308 46.9496 24.3517 47.6474 22.3333 47.6474C20.315 47.6474 18.3587 46.9496 16.7959 45.6723C15.2331 44.3949 14.16 42.6166 13.7583 40.6386H4.83334C4.21826 40.6374 3.61437 40.4741 3.08248 40.1652C2.5506 39.8563 2.10951 39.4127 1.80365 38.879C1.4978 38.3454 1.33797 37.7406 1.34027 37.1255C1.34258 36.5104 1.50693 35.9068 1.81678 35.3755C3.78772 31.9739 4.83334 27.1374 4.83334 21.3886C4.83334 16.7473 6.67709 12.2961 9.95897 9.01423C13.2409 5.73235 17.6921 3.8886 22.3333 3.8886C26.9746 3.8886 31.4258 5.73235 34.7077 9.01423C37.9896 12.2961 39.8333 16.7473 39.8333 21.3886C39.8333 27.1352 40.879 31.9717 42.8543 35.3755ZM27.2815 40.6386H17.3852C17.7478 41.6611 18.4182 42.5461 19.3042 43.172C20.1903 43.798 21.2485 44.134 22.3333 44.134C23.4182 44.134 24.4764 43.798 25.3624 43.172C26.2485 42.5461 26.9189 41.6611 27.2815 40.6386Z" fill="#8330c2"/>
</svg>
