<svg width="50" height="46" viewBox="0 0 50 46" fill="none" xmlns="http://www.w3.org/2000/svg">
<path d="M49.3827 18.3405C49.334 18.0941 49.2327 17.861 49.0859 17.6572C48.9391 17.4534 48.7501 17.2835 48.5318 17.1592L42.0065 13.4405L41.9802 6.08612C41.9794 5.83283 41.9237 5.58274 41.8168 5.35312C41.7099 5.12349 41.5544 4.9198 41.3612 4.75612C38.9941 2.75389 36.2683 1.21951 33.3287 0.234555C33.0972 0.156198 32.8518 0.1272 32.6084 0.149429C32.365 0.171658 32.129 0.244621 31.9155 0.363617L25.3333 4.04299L18.7446 0.357054C18.531 0.237388 18.2947 0.163874 18.0509 0.141266C17.8071 0.118658 17.5612 0.147458 17.3293 0.225804C14.3914 1.21709 11.6686 2.75741 9.30553 4.76487C9.11252 4.92831 8.95723 5.13165 8.85036 5.36087C8.74349 5.5901 8.68757 5.83977 8.68647 6.09268L8.65365 13.4536L2.12834 17.1724C1.91003 17.2967 1.72104 17.4665 1.57421 17.6703C1.42737 17.8741 1.32615 18.1072 1.2774 18.3536C0.680207 21.3546 0.680207 24.4439 1.2774 27.4449C1.32615 27.6913 1.42737 27.9244 1.57421 28.1282C1.72104 28.332 1.91003 28.5018 2.12834 28.6261L8.65365 32.3449L8.6799 39.7014C8.6807 39.9547 8.73646 40.2048 8.84334 40.4344C8.95022 40.6641 9.10568 40.8677 9.29897 41.0314C11.666 43.0337 14.3918 44.568 17.3315 45.553C17.563 45.6313 17.8083 45.6603 18.0517 45.6381C18.2951 45.6159 18.5311 45.5429 18.7446 45.4239L25.3333 41.7336L31.9221 45.4196C32.1828 45.5648 32.4767 45.6402 32.7752 45.6383C32.9663 45.6382 33.1562 45.6072 33.3374 45.5464C36.2746 44.5556 38.9972 43.0169 41.3612 41.0117C41.5542 40.8483 41.7094 40.645 41.8163 40.4157C41.9232 40.1865 41.9791 39.9368 41.9802 39.6839L42.013 32.323L48.5383 28.6042C48.7566 28.48 48.9456 28.3101 49.0925 28.1063C49.2393 27.9025 49.3405 27.6694 49.3893 27.423C49.9831 24.4244 49.9809 21.3382 49.3827 18.3405ZM25.3333 31.6383C23.6028 31.6383 21.911 31.1251 20.4721 30.1637C19.0332 29.2022 17.9117 27.8356 17.2494 26.2368C16.5871 24.6379 16.4138 22.8786 16.7515 21.1813C17.0891 19.4839 17.9224 17.9248 19.1462 16.7011C20.3699 15.4774 21.929 14.6441 23.6263 14.3064C25.3236 13.9688 27.083 14.1421 28.6818 14.8044C30.2807 15.4666 31.6472 16.5881 32.6087 18.0271C33.5702 19.466 34.0833 21.1577 34.0833 22.8883C34.0833 25.209 33.1615 27.4345 31.5205 29.0755C29.8796 30.7164 27.654 31.6383 25.3333 31.6383Z" fill="#8330c2"/>
</svg>
