<svg width="42" height="50" viewBox="0 0 42 50" fill="none" xmlns="http://www.w3.org/2000/svg">
<path d="M21 7.63867C16.8466 7.63867 12.7865 8.8703 9.33304 11.1778C5.8796 13.4853 3.18798 16.7651 1.59854 20.6023C0.00909901 24.4396 -0.406771 28.662 0.403519 32.7356C1.21381 36.8092 3.21386 40.551 6.15077 43.4879C9.08767 46.4248 12.8295 48.4249 16.9031 49.2352C20.9767 50.0455 25.1991 49.6296 29.0364 48.0401C32.8736 46.4507 36.1534 43.7591 38.4609 40.3056C40.7684 36.8522 42 32.7921 42 28.6387C41.9936 23.0711 39.7791 17.7333 35.8422 13.7965C31.9053 9.85958 26.5676 7.64504 21 7.63867ZM30.9881 21.1268L22.2381 29.8768C22.0755 30.0394 21.8825 30.1684 21.6701 30.2564C21.4576 30.3444 21.23 30.3896 21 30.3896C20.7701 30.3896 20.5424 30.3444 20.3299 30.2564C20.1175 30.1684 19.9245 30.0394 19.7619 29.8768C19.5993 29.7142 19.4703 29.5212 19.3823 29.3087C19.2943 29.0963 19.249 28.8686 19.249 28.6387C19.249 28.4087 19.2943 28.181 19.3823 27.9686C19.4703 27.7562 19.5993 27.5631 19.7619 27.4005L28.5119 18.6505C28.6745 18.488 28.8675 18.359 29.0799 18.271C29.2924 18.183 29.5201 18.1377 29.75 18.1377C29.98 18.1377 30.2076 18.183 30.4201 18.271C30.6325 18.359 30.8255 18.488 30.9881 18.6505C31.1507 18.8131 31.2797 19.0062 31.3677 19.2186C31.4557 19.431 31.501 19.6587 31.501 19.8887C31.501 20.1186 31.4557 20.3463 31.3677 20.5587C31.2797 20.7712 31.1507 20.9642 30.9881 21.1268ZM14 2.38867C14 1.92454 14.1844 1.47942 14.5126 1.15123C14.8408 0.823046 15.2859 0.638672 15.75 0.638672H26.25C26.7141 0.638672 27.1593 0.823046 27.4874 1.15123C27.8156 1.47942 28 1.92454 28 2.38867C28 2.8528 27.8156 3.29792 27.4874 3.62611C27.1593 3.9543 26.7141 4.13867 26.25 4.13867H15.75C15.2859 4.13867 14.8408 3.9543 14.5126 3.62611C14.1844 3.29792 14 2.8528 14 2.38867Z" fill="#8330c2"/>
</svg>
