<svg width="45" height="39" viewBox="0 0 45 39" fill="none" xmlns="http://www.w3.org/2000/svg">
<path d="M28.6666 2.13867V23.1387C28.6666 23.6028 28.4823 24.0479 28.1541 24.3761C27.8259 24.7043 27.3808 24.8887 26.9166 24.8887H18.1666C17.7025 24.8887 17.2574 24.7043 16.9292 24.3761C16.601 24.0479 16.4166 23.6028 16.4166 23.1387V2.13867C16.4166 1.67454 16.601 1.22942 16.9292 0.901235C17.2574 0.573047 17.7025 0.388672 18.1666 0.388672H26.9166C27.3808 0.388672 27.8259 0.573047 28.1541 0.901235C28.4823 1.22942 28.6666 1.67454 28.6666 2.13867ZM42.6666 0.388672H33.9166C33.4525 0.388672 33.0074 0.573047 32.6792 0.901235C32.351 1.22942 32.1666 1.67454 32.1666 2.13867V13.5137C32.1666 13.7457 32.2588 13.9683 32.4229 14.1324C32.587 14.2965 32.8096 14.3887 33.0416 14.3887H43.5416C43.7737 14.3887 43.9963 14.2965 44.1603 14.1324C44.3244 13.9683 44.4166 13.7457 44.4166 13.5137V2.13867C44.4166 1.67454 44.2323 1.22942 43.9041 0.901235C43.5759 0.573047 43.1308 0.388672 42.6666 0.388672ZM43.5416 17.8887H33.0416C32.8096 17.8887 32.587 17.9809 32.4229 18.145C32.2588 18.309 32.1666 18.5316 32.1666 18.7637V28.3887C32.1666 29.3169 32.5354 30.2072 33.1918 30.8635C33.8481 31.5199 34.7384 31.8887 35.6666 31.8887H40.9166C41.8449 31.8887 42.7351 31.5199 43.3915 30.8635C44.0479 30.2072 44.4166 29.3169 44.4166 28.3887V18.7637C44.4166 18.5316 44.3244 18.309 44.1603 18.145C43.9963 17.9809 43.7737 17.8887 43.5416 17.8887ZM11.1666 0.388672H2.41663C1.9525 0.388672 1.50738 0.573047 1.17919 0.901235C0.851001 1.22942 0.666626 1.67454 0.666626 2.13867V13.5137C0.666626 13.7457 0.758813 13.9683 0.922908 14.1324C1.087 14.2965 1.30956 14.3887 1.54163 14.3887H12.0416C12.2737 14.3887 12.4963 14.2965 12.6603 14.1324C12.8244 13.9683 12.9166 13.7457 12.9166 13.5137V2.13867C12.9166 1.67454 12.7323 1.22942 12.4041 0.901235C12.0759 0.573047 11.6308 0.388672 11.1666 0.388672ZM12.0416 17.8887H1.54163C1.30956 17.8887 1.087 17.9809 0.922908 18.145C0.758813 18.309 0.666626 18.5316 0.666626 18.7637V35.3887C0.666626 36.3169 1.03537 37.2072 1.69175 37.8635C2.34813 38.5199 3.23837 38.8887 4.16663 38.8887H9.41663C10.3449 38.8887 11.2351 38.5199 11.8915 37.8635C12.5479 37.2072 12.9166 36.3169 12.9166 35.3887V18.7637C12.9166 18.5316 12.8244 18.309 12.6603 18.145C12.4963 17.9809 12.2737 17.8887 12.0416 17.8887Z" fill="#8330c2"/>
</svg>
